<mxfile host="65bd71144e" scale="3" border="0">
    <diagram name="Page-1" id="59WAnHERJ_V3eqIYlF-k">
        <mxGraphModel dx="557" dy="369" grid="1" gridSize="10" guides="1" tooltips="1" connect="1" arrows="1" fold="1" page="1" pageScale="1" pageWidth="291" pageHeight="413" math="1" shadow="0">
            <root>
                <mxCell id="0"/>
                <mxCell id="1" parent="0"/>
                <mxCell id="ZL8uiKgyf7FYXioLdww7-14" style="edgeStyle=orthogonalEdgeStyle;rounded=0;orthogonalLoop=1;jettySize=auto;html=1;exitX=1;exitY=0.5;exitDx=0;exitDy=0;entryX=0;entryY=0.5;entryDx=0;entryDy=0;" parent="1" source="ZL8uiKgyf7FYXioLdww7-1" target="ZL8uiKgyf7FYXioLdww7-11" edge="1">
                    <mxGeometry relative="1" as="geometry"/>
                </mxCell>
                <mxCell id="ZL8uiKgyf7FYXioLdww7-1" value="Counter" style="rounded=0;whiteSpace=wrap;html=1;fillColor=none;fontFamily=Times New Roman;fontSize=14;" parent="1" vertex="1">
                    <mxGeometry x="106" y="47" width="80" height="40" as="geometry"/>
                </mxCell>
                <mxCell id="ZL8uiKgyf7FYXioLdww7-8" style="edgeStyle=orthogonalEdgeStyle;rounded=0;orthogonalLoop=1;jettySize=auto;html=1;exitX=1;exitY=0.5;exitDx=0;exitDy=0;entryX=0;entryY=0.25;entryDx=0;entryDy=0;" parent="1" source="ZL8uiKgyf7FYXioLdww7-7" target="ZL8uiKgyf7FYXioLdww7-1" edge="1">
                    <mxGeometry relative="1" as="geometry"/>
                </mxCell>
                <mxCell id="ZL8uiKgyf7FYXioLdww7-7" value="in[18:0]" style="text;html=1;strokeColor=none;fillColor=none;align=center;verticalAlign=middle;whiteSpace=wrap;rounded=0;fontFamily=Times New Roman;" parent="1" vertex="1">
                    <mxGeometry x="6" y="27" width="60" height="30" as="geometry"/>
                </mxCell>
                <mxCell id="ZL8uiKgyf7FYXioLdww7-10" style="edgeStyle=orthogonalEdgeStyle;rounded=0;orthogonalLoop=1;jettySize=auto;html=1;exitX=1;exitY=0.5;exitDx=0;exitDy=0;entryX=0;entryY=0.75;entryDx=0;entryDy=0;" parent="1" source="ZL8uiKgyf7FYXioLdww7-9" target="ZL8uiKgyf7FYXioLdww7-1" edge="1">
                    <mxGeometry relative="1" as="geometry"/>
                </mxCell>
                <mxCell id="ZL8uiKgyf7FYXioLdww7-9" value="to_count" style="text;html=1;strokeColor=none;fillColor=none;align=center;verticalAlign=middle;whiteSpace=wrap;rounded=0;fontFamily=Times New Roman;" parent="1" vertex="1">
                    <mxGeometry x="6" y="77" width="60" height="30" as="geometry"/>
                </mxCell>
                <mxCell id="ZL8uiKgyf7FYXioLdww7-11" value="out[9:0]" style="text;html=1;strokeColor=none;fillColor=none;align=center;verticalAlign=middle;whiteSpace=wrap;rounded=0;fontFamily=Times New Roman;" parent="1" vertex="1">
                    <mxGeometry x="226" y="52" width="60" height="30" as="geometry"/>
                </mxCell>
                <mxCell id="ZL8uiKgyf7FYXioLdww7-13" style="edgeStyle=orthogonalEdgeStyle;rounded=0;orthogonalLoop=1;jettySize=auto;html=1;exitX=1;exitY=0.5;exitDx=0;exitDy=0;entryX=0;entryY=0.5;entryDx=0;entryDy=0;" parent="1" source="ZL8uiKgyf7FYXioLdww7-12" target="ZL8uiKgyf7FYXioLdww7-1" edge="1">
                    <mxGeometry relative="1" as="geometry"/>
                </mxCell>
                <mxCell id="ZL8uiKgyf7FYXioLdww7-12" value="reset" style="text;html=1;strokeColor=none;fillColor=none;align=center;verticalAlign=middle;whiteSpace=wrap;rounded=0;fontFamily=Times New Roman;" parent="1" vertex="1">
                    <mxGeometry x="6" y="52" width="60" height="30" as="geometry"/>
                </mxCell>
                <mxCell id="ZL8uiKgyf7FYXioLdww7-20" style="edgeStyle=orthogonalEdgeStyle;rounded=0;orthogonalLoop=1;jettySize=auto;html=1;exitX=0.5;exitY=1;exitDx=0;exitDy=0;entryX=0.5;entryY=0;entryDx=0;entryDy=0;" parent="1" source="ZL8uiKgyf7FYXioLdww7-18" target="ZL8uiKgyf7FYXioLdww7-19" edge="1">
                    <mxGeometry relative="1" as="geometry"/>
                </mxCell>
                <mxCell id="ZL8uiKgyf7FYXioLdww7-18" value="Wait for input" style="rounded=0;whiteSpace=wrap;html=1;fillColor=none;fontFamily=Times New Roman;fontSize=13;" parent="1" vertex="1">
                    <mxGeometry x="106" y="167" width="80" height="40" as="geometry"/>
                </mxCell>
                <mxCell id="ZL8uiKgyf7FYXioLdww7-21" style="edgeStyle=orthogonalEdgeStyle;rounded=0;orthogonalLoop=1;jettySize=auto;html=1;exitX=0;exitY=0.5;exitDx=0;exitDy=0;entryX=0;entryY=0.5;entryDx=0;entryDy=0;" parent="1" source="ZL8uiKgyf7FYXioLdww7-19" target="ZL8uiKgyf7FYXioLdww7-18" edge="1">
                    <mxGeometry relative="1" as="geometry"/>
                </mxCell>
                <mxCell id="ZL8uiKgyf7FYXioLdww7-25" style="edgeStyle=orthogonalEdgeStyle;rounded=0;orthogonalLoop=1;jettySize=auto;html=1;exitX=0.5;exitY=1;exitDx=0;exitDy=0;entryX=0.5;entryY=0;entryDx=0;entryDy=0;" parent="1" source="ZL8uiKgyf7FYXioLdww7-19" target="ZL8uiKgyf7FYXioLdww7-24" edge="1">
                    <mxGeometry relative="1" as="geometry"/>
                </mxCell>
                <mxCell id="ZL8uiKgyf7FYXioLdww7-19" value="Check MSB" style="rounded=0;whiteSpace=wrap;html=1;fillColor=none;fontFamily=Times New Roman;fontSize=13;" parent="1" vertex="1">
                    <mxGeometry x="106" y="227" width="80" height="40" as="geometry"/>
                </mxCell>
                <mxCell id="ZL8uiKgyf7FYXioLdww7-22" value="$$MSB \ne to\_coun t$$" style="text;html=1;strokeColor=none;fillColor=none;align=center;verticalAlign=middle;whiteSpace=wrap;rounded=0;rotation=-90;fontFamily=Times New Roman;fontSize=10;" parent="1" vertex="1">
                    <mxGeometry x="46" y="207" width="60" height="30" as="geometry"/>
                </mxCell>
                <mxCell id="ZL8uiKgyf7FYXioLdww7-30" style="edgeStyle=orthogonalEdgeStyle;rounded=0;orthogonalLoop=1;jettySize=auto;html=1;exitX=0.5;exitY=1;exitDx=0;exitDy=0;entryX=0.5;entryY=0;entryDx=0;entryDy=0;" parent="1" source="ZL8uiKgyf7FYXioLdww7-24" target="ZL8uiKgyf7FYXioLdww7-29" edge="1">
                    <mxGeometry relative="1" as="geometry"/>
                </mxCell>
                <mxCell id="ZL8uiKgyf7FYXioLdww7-24" value="&lt;font style=&quot;font-size: 8px;&quot;&gt;Increment Internal Reg&lt;/font&gt;" style="rounded=0;whiteSpace=wrap;html=1;fillColor=none;fontFamily=Times New Roman;fontSize=13;" parent="1" vertex="1">
                    <mxGeometry x="106" y="287" width="80" height="40" as="geometry"/>
                </mxCell>
                <mxCell id="ZL8uiKgyf7FYXioLdww7-26" value="$$MSB = to\_coun t$$" style="text;html=1;strokeColor=none;fillColor=none;align=center;verticalAlign=middle;whiteSpace=wrap;rounded=0;rotation=0;fontFamily=Times New Roman;fontSize=10;" parent="1" vertex="1">
                    <mxGeometry x="161" y="263" width="60" height="30" as="geometry"/>
                </mxCell>
                <mxCell id="ZL8uiKgyf7FYXioLdww7-31" style="edgeStyle=orthogonalEdgeStyle;rounded=0;orthogonalLoop=1;jettySize=auto;html=1;exitX=1;exitY=0.5;exitDx=0;exitDy=0;entryX=1;entryY=0.5;entryDx=0;entryDy=0;" parent="1" source="ZL8uiKgyf7FYXioLdww7-29" target="ZL8uiKgyf7FYXioLdww7-18" edge="1">
                    <mxGeometry relative="1" as="geometry">
                        <Array as="points">
                            <mxPoint x="236" y="367"/>
                            <mxPoint x="236" y="187"/>
                        </Array>
                    </mxGeometry>
                </mxCell>
                <mxCell id="ZL8uiKgyf7FYXioLdww7-29" value="&lt;font style=&quot;font-size: 8px;&quot;&gt;Update Output Reg&lt;/font&gt;" style="rounded=0;whiteSpace=wrap;html=1;fillColor=none;fontFamily=Times New Roman;fontSize=13;" parent="1" vertex="1">
                    <mxGeometry x="106" y="347" width="80" height="40" as="geometry"/>
                </mxCell>
                <mxCell id="7" style="edgeStyle=none;rounded=0;html=1;exitX=0.5;exitY=1;exitDx=0;exitDy=0;fontFamily=Times New Roman;fontSize=11;entryX=0;entryY=0.5;entryDx=0;entryDy=0;" edge="1" parent="1" source="2" target="ZL8uiKgyf7FYXioLdww7-29">
                    <mxGeometry relative="1" as="geometry">
                        <mxPoint x="-20" y="360" as="targetPoint"/>
                        <Array as="points">
                            <mxPoint x="40" y="367"/>
                        </Array>
                    </mxGeometry>
                </mxCell>
                <mxCell id="2" value="&lt;font style=&quot;font-size: 11px;&quot;&gt;Internal Reg = 0&lt;/font&gt;" style="rounded=0;whiteSpace=wrap;html=1;fillColor=none;fontFamily=Times New Roman;fontSize=13;" vertex="1" parent="1">
                    <mxGeometry y="287" width="80" height="40" as="geometry"/>
                </mxCell>
                <mxCell id="6" value="" style="endArrow=classic;html=1;exitX=0;exitY=0.25;exitDx=0;exitDy=0;entryX=0.5;entryY=0;entryDx=0;entryDy=0;rounded=0;" edge="1" parent="1" source="ZL8uiKgyf7FYXioLdww7-18" target="2">
                    <mxGeometry width="50" height="50" relative="1" as="geometry">
                        <mxPoint x="-20" y="220" as="sourcePoint"/>
                        <mxPoint x="30" y="170" as="targetPoint"/>
                        <Array as="points">
                            <mxPoint x="40" y="177"/>
                        </Array>
                    </mxGeometry>
                </mxCell>
                <mxCell id="8" value="$$Reset = 1$$" style="text;html=1;strokeColor=none;fillColor=none;align=center;verticalAlign=middle;whiteSpace=wrap;rounded=0;rotation=0;fontFamily=Times New Roman;fontSize=10;" vertex="1" parent="1">
                    <mxGeometry x="34" y="155" width="60" height="30" as="geometry"/>
                </mxCell>
            </root>
        </mxGraphModel>
    </diagram>
</mxfile>